<?xml version="1.0" encoding="UTF-8" standalone="no"?>
<svg
   xmlns:dc="http://purl.org/dc/elements/1.1/"
   xmlns:cc="http://creativecommons.org/ns#"
   xmlns:rdf="http://www.w3.org/1999/02/22-rdf-syntax-ns#"
   xmlns:svg="http://www.w3.org/2000/svg"
   xmlns="http://www.w3.org/2000/svg"
   width="50mm"
   height="50mm"
   viewBox="0 0 50 50"
   version="1.1"
   id="svg897">
  <defs
     id="defs891" />
  <metadata
     id="metadata894">
    <rdf:RDF>
      <cc:Work
         rdf:about="">
        <dc:format>image/svg+xml</dc:format>
        <dc:type
           rdf:resource="http://purl.org/dc/dcmitype/StillImage" />
        <dc:title></dc:title>
      </cc:Work>
    </rdf:RDF>
  </metadata>
  <g
     id="layer1">
    <g
       id="g1022"
       style="fill:#000000"
       transform="matrix(0.40011251,0,0,0.40011251,-9.9015196,-62.488216)">
      <g
         id="g1132"
         transform="translate(-239.4735,79.646319)">
        <path
           id="rect916"
           style="fill:#000000;fill-opacity:1;stroke:none;stroke-width:21.6235;stroke-linecap:round;stroke-linejoin:round;stroke-miterlimit:4;stroke-dasharray:none;stroke-opacity:1"
           d="m 1378.8926,322.43359 c -12.2689,0 -22.1976,6.36071 -29.3125,12.03321 -0.428,0.34118 -0.8169,0.67907 -1.2266,1.01953 a 49.209482,49.209482 0 0 0 -63.0449,4.44531 l 69.582,69.58203 a 49.209482,49.209482 0 0 0 5.8867,-60.93945 c 0.01,-0.008 0.019,-0.0154 0.029,-0.0234 5.5095,-4.3925 12.6379,-8.10547 18.086,-8.10547 10.8381,0 17.0459,4.49877 21.7246,11.14649 4.6787,6.64771 6.9473,15.82442 6.9473,22.3457 v 131.27539 h -12.1524 c -4.3294,0 -7.8164,3.54833 -7.8164,7.95703 v 20.44922 c 0,4.40871 3.487,7.95898 7.8164,7.95898 h 42.8067 c 4.3293,0 7.8144,-3.55027 7.8144,-7.95898 v -20.44922 c 0,-4.4087 -3.4851,-7.95703 -7.8144,-7.95703 h -12.6426 V 373.9375 c 0,-10.22967 -2.9046,-22.29707 -10.2324,-32.70898 -7.3279,-10.41192 -19.9585,-18.79493 -36.4512,-18.79493 z"
           transform="scale(0.26458333)" />
        <g
           id="g983"
           style="fill:#000000;fill-opacity:1;stroke:#000000;stroke-opacity:1">
          <g
             id="g1033"
             style="opacity:1">
            <path
               style="color:#000000;font-style:normal;font-variant:normal;font-weight:normal;font-stretch:normal;font-size:medium;line-height:normal;font-family:sans-serif;font-variant-ligatures:normal;font-variant-position:normal;font-variant-caps:normal;font-variant-numeric:normal;font-variant-alternates:normal;font-variant-east-asian:normal;font-feature-settings:normal;font-variation-settings:normal;text-indent:0;text-align:start;text-decoration:none;text-decoration-line:none;text-decoration-style:solid;text-decoration-color:#000000;letter-spacing:normal;word-spacing:normal;text-transform:none;writing-mode:lr-tb;direction:ltr;text-orientation:mixed;dominant-baseline:auto;baseline-shift:baseline;text-anchor:start;white-space:normal;shape-padding:0;shape-margin:0;inline-size:0;clip-rule:nonzero;display:inline;overflow:visible;visibility:visible;isolation:auto;mix-blend-mode:normal;color-interpolation:sRGB;color-interpolation-filters:linearRGB;solid-color:#000000;solid-opacity:1;vector-effect:none;fill:#000000;fill-opacity:1;fill-rule:nonzero;stroke:none;stroke-width:2.47441;stroke-linecap:round;stroke-linejoin:round;stroke-miterlimit:4;stroke-dasharray:none;stroke-dashoffset:0;stroke-opacity:1;color-rendering:auto;image-rendering:auto;shape-rendering:auto;text-rendering:auto;enable-background:accumulate;stop-color:#000000;stop-opacity:1"
               d="m 270.90625,141.32031 c -0.84618,3.8e-4 -1.44233,0.83102 -1.17187,1.63281 l 11.09374,32.86719 c 0.71754,2.12576 2.1227,4.85058 4.29883,7.13086 2.17613,2.28028 5.19684,4.11719 8.93946,4.11719 h 69.56836 c 3.77206,0 7.05803,-1.93937 9.46484,-4.3418 2.40681,-2.40243 4.00881,-5.23529 4.35937,-7.6582 l 4.67774,-32.33398 c 0.10944,-0.75699 -0.48727,-1.43098 -1.25195,-1.41407 -15.85012,0.3509 -93.64595,0 -109.97852,0 z m 1.72461,2.47852 c 17.66183,0.0105 89.68568,0.32723 106.85156,0 l -4.47265,30.91406 c -0.22443,1.55116 -1.57972,4.18897 -3.65821,6.26367 -2.07848,2.07471 -4.80443,3.61719 -7.71679,3.61719 h -69.56836 c -2.94182,0 -5.29333,-1.40571 -7.14844,-3.34961 -1.85512,-1.9439 -3.14153,-4.42378 -3.74609,-6.21484 z"
               id="path1035" />
            <path
               style="color:#000000;font-style:normal;font-variant:normal;font-weight:normal;font-stretch:normal;font-size:medium;line-height:normal;font-family:sans-serif;font-variant-ligatures:normal;font-variant-position:normal;font-variant-caps:normal;font-variant-numeric:normal;font-variant-alternates:normal;font-variant-east-asian:normal;font-feature-settings:normal;font-variation-settings:normal;text-indent:0;text-align:start;text-decoration:none;text-decoration-line:none;text-decoration-style:solid;text-decoration-color:#000000;letter-spacing:normal;word-spacing:normal;text-transform:none;writing-mode:lr-tb;direction:ltr;text-orientation:mixed;dominant-baseline:auto;baseline-shift:baseline;text-anchor:start;white-space:normal;shape-padding:0;shape-margin:0;inline-size:0;clip-rule:nonzero;display:inline;overflow:visible;visibility:visible;isolation:auto;mix-blend-mode:normal;color-interpolation:sRGB;color-interpolation-filters:linearRGB;solid-color:#000000;solid-opacity:1;vector-effect:none;fill:#000000;fill-opacity:1;fill-rule:nonzero;stroke:none;stroke-width:2.47441;stroke-linecap:round;stroke-linejoin:round;stroke-miterlimit:4;stroke-dasharray:none;stroke-dashoffset:0;stroke-opacity:1;color-rendering:auto;image-rendering:auto;shape-rendering:auto;text-rendering:auto;enable-background:accumulate;stop-color:#000000;stop-opacity:1"
               d="m 270.90625,140.08398 c -1.65557,7.4e-4 -2.87291,1.69495 -2.34375,3.26368 a 1.2373287,1.2373287 0 0 0 0,0.002 l 11.09375,32.86719 c 0.77161,2.28595 2.24384,5.14392 4.57617,7.58789 2.34181,2.45389 5.68655,4.5 9.83399,4.5 h 69.56836 c 4.19612,0 7.77015,-2.13812 10.33984,-4.70313 2.5567,-2.55205 4.3015,-5.53915 4.70898,-8.35547 l 4.67774,-32.33398 c 0.21544,-1.49022 -0.99856,-2.86141 -2.50391,-2.82813 -15.74231,0.34852 -93.60088,0 -109.95117,0 z m 0,2.47266 c 0.35976,0 2.01347,0.006 2.43164,0.006 -0.12171,-10e-5 -0.59005,7e-5 -0.70703,0 a 1.2373287,1.2373287 0 0 0 -1.18359,1.5957 l -0.54102,-1.59961 z m 110.00586,0 -0.20508,1.41211 a 1.2373287,1.2373287 0 0 0 -1.24805,-1.40625 c -0.15461,0.003 -0.80325,-0.003 -0.96679,0 0.41066,-0.007 2.06802,0.002 2.41992,-0.006 z m -106.55859,2.47852 c 18.79652,0.0196 85.54013,0.30211 103.69921,0 l -4.26757,29.5 c -0.15182,1.04928 -1.41089,3.67215 -3.3086,5.5664 -1.91268,1.90921 -4.36628,3.25586 -6.84179,3.25586 h -69.56836 c -2.5477,0 -4.55364,-1.18515 -6.25391,-2.9668 -1.68951,-1.77036 -2.9236,-4.14275 -3.46875,-5.75781 z m 9.14843,33.66992 c 0.67024,1.15777 1.51112,2.33386 2.52149,3.39258 -3.6e-4,-3.8e-4 -0.002,3.7e-4 -0.002,0 -1.00996,-1.0583 -1.84954,-2.23476 -2.51953,-3.39258 z m 6.04493,6.04883 c 1.34263,0.66989 2.85156,1.07617 4.51953,1.07617 h 69.56836 c 0.8373,0 1.6524,-0.10865 2.43945,-0.30664 -0.78702,0.19816 -1.60246,0.30859 -2.43945,0.30859 h -69.56836 c -1.6689,0 -3.17696,-0.40792 -4.51953,-1.07812 z"
               id="path1037" />
          </g>
          <g
             id="g1024"
             style="opacity:1">
            <path
               id="path1028"
               style="color:#000000;font-style:normal;font-variant:normal;font-weight:normal;font-stretch:normal;font-size:medium;line-height:normal;font-family:sans-serif;font-variant-ligatures:normal;font-variant-position:normal;font-variant-caps:normal;font-variant-numeric:normal;font-variant-alternates:normal;font-variant-east-asian:normal;font-feature-settings:normal;font-variation-settings:normal;text-indent:0;text-align:start;text-decoration:none;text-decoration-line:none;text-decoration-style:solid;text-decoration-color:#000000;letter-spacing:normal;word-spacing:normal;text-transform:none;writing-mode:lr-tb;direction:ltr;text-orientation:mixed;dominant-baseline:auto;baseline-shift:baseline;text-anchor:start;white-space:normal;shape-padding:0;shape-margin:0;inline-size:0;clip-rule:nonzero;display:inline;overflow:visible;visibility:visible;isolation:auto;mix-blend-mode:normal;color-interpolation:sRGB;color-interpolation-filters:linearRGB;solid-color:#000000;solid-opacity:1;vector-effect:none;fill:#000000;fill-opacity:1;fill-rule:nonzero;stroke:none;stroke-width:9.3521;stroke-linecap:round;stroke-linejoin:round;stroke-miterlimit:4;stroke-dasharray:none;stroke-dashoffset:0;stroke-opacity:1;color-rendering:auto;image-rendering:auto;shape-rendering:auto;text-rendering:auto;enable-background:accumulate;stop-color:#000000;stop-opacity:1"
               d="m 1023.8984,524.7793 c -9.3384,0.004 -16.1462,9.32843 -13.3828,18.1914 0.028,0.10851 0.059,0.21601 0.094,0.32227 l 41.9297,124.22265 c 3.115,9.22852 8.9501,20.56109 18.3437,30.4043 9.49,9.94405 23.3355,18.45508 40.5488,18.45508 h 262.9356 c 17.4478,0 32.0598,-8.83245 42.3867,-19.14062 10.2015,-10.18292 17.3753,-22.16197 19.1191,-34.21485 l 17.6797,-122.20703 c 1.2283,-8.4963 -5.6128,-16.22297 -14.1953,-16.0332 -59.0884,1.30813 -353.5961,0 -415.459,0 z m 19.5391,16.69437 c 74.5739,0.10303 308.3545,12.41542 380.0195,11.36422 l -15.3535,106.15039 c -0.1037,0.71634 -1.2567,4.16908 -3.2344,7.71484 -1.9776,3.54573 -4.7607,7.50683 -7.9492,10.68946 -6.592,6.58004 -14.8923,10.93945 -22.5527,10.93945 h -262.9356 c -8.1789,0 -14.3827,-3.61146 -20.2558,-9.76562 -5.7303,-6.00446 -10.2422,-14.64238 -12.0625,-20.03516 z"
               transform="scale(0.26458333)" />
          </g>
        </g>
        <path
           id="rect906"
           style="fill:#000000;fill-opacity:1;stroke:none;stroke-width:4.93258;stroke-linecap:round;stroke-linejoin:round;stroke-miterlimit:4;stroke-dasharray:none;stroke-opacity:1"
           d="m 295.5334,183.28008 h 8.41876 c 0.85145,0 1.53691,0.93907 1.53691,2.10555 v 5.41059 c 0,1.16648 -0.68546,2.10556 -1.53691,2.10556 h -8.41876 c -0.85145,0 -1.53691,-0.93908 -1.53691,-2.10556 v -5.41059 c 0,-1.16648 0.68546,-2.10555 1.53691,-2.10555 z" />
        <path
           id="rect908"
           style="fill:#000000;fill-opacity:1;stroke:none;stroke-width:4.93258;stroke-linecap:round;stroke-linejoin:round;stroke-miterlimit:4;stroke-dasharray:none;stroke-opacity:1"
           d="m 355.44264,183.28008 h 8.41876 c 0.85145,0 1.53691,0.93907 1.53691,2.10555 v 5.41059 c 0,1.16648 -0.68546,2.10556 -1.53691,2.10556 h -8.41876 c -0.85145,0 -1.53691,-0.93908 -1.53691,-2.10556 v -5.41059 c 0,-1.16648 0.68546,-2.10555 1.53691,-2.10555 z" />
        <g
           id="g998"
           style="opacity:1">
          <path
             style="color:#000000;font-style:normal;font-variant:normal;font-weight:normal;font-stretch:normal;font-size:medium;line-height:normal;font-family:sans-serif;font-variant-ligatures:normal;font-variant-position:normal;font-variant-caps:normal;font-variant-numeric:normal;font-variant-alternates:normal;font-variant-east-asian:normal;font-feature-settings:normal;font-variation-settings:normal;text-indent:0;text-align:start;text-decoration:none;text-decoration-line:none;text-decoration-style:solid;text-decoration-color:#000000;letter-spacing:normal;word-spacing:normal;text-transform:none;writing-mode:lr-tb;direction:ltr;text-orientation:mixed;dominant-baseline:auto;baseline-shift:baseline;text-anchor:start;white-space:normal;shape-padding:0;shape-margin:0;inline-size:0;clip-rule:nonzero;display:inline;overflow:visible;visibility:visible;isolation:auto;mix-blend-mode:normal;color-interpolation:sRGB;color-interpolation-filters:linearRGB;solid-color:#000000;solid-opacity:1;vector-effect:none;fill:#ffffff;fill-opacity:1;fill-rule:nonzero;stroke:none;stroke-width:3.8;stroke-linecap:round;stroke-linejoin:round;stroke-miterlimit:4;stroke-dasharray:none;stroke-dashoffset:0;stroke-opacity:1;color-rendering:auto;image-rendering:auto;shape-rendering:auto;text-rendering:auto;enable-background:accumulate;stop-color:#000000;stop-opacity:1"
             d="m 272.21404,138.71289 h 109.17959 c 3.03538,0 5.47903,2.44365 5.47903,5.47903 0,3.03538 -2.44365,5.47902 -5.47903,5.47902 H 272.21404 c -3.03538,0 -5.47902,-2.44364 -5.47902,-5.47902 0,-3.03538 2.44364,-5.47903 5.47902,-5.47903 z"
             id="path1000" />
          <path
             style="color:#000000;font-style:normal;font-variant:normal;font-weight:normal;font-stretch:normal;font-size:medium;line-height:normal;font-family:sans-serif;font-variant-ligatures:normal;font-variant-position:normal;font-variant-caps:normal;font-variant-numeric:normal;font-variant-alternates:normal;font-variant-east-asian:normal;font-feature-settings:normal;font-variation-settings:normal;text-indent:0;text-align:start;text-decoration:none;text-decoration-line:none;text-decoration-style:solid;text-decoration-color:#000000;letter-spacing:normal;word-spacing:normal;text-transform:none;writing-mode:lr-tb;direction:ltr;text-orientation:mixed;dominant-baseline:auto;baseline-shift:baseline;text-anchor:start;white-space:normal;shape-padding:0;shape-margin:0;inline-size:0;clip-rule:nonzero;display:inline;overflow:visible;visibility:visible;isolation:auto;mix-blend-mode:normal;color-interpolation:sRGB;color-interpolation-filters:linearRGB;solid-color:#000000;solid-opacity:1;vector-effect:none;fill:#000000;fill-opacity:1;fill-rule:nonzero;stroke:none;stroke-width:3.8;stroke-linecap:round;stroke-linejoin:round;stroke-miterlimit:4;stroke-dasharray:none;stroke-dashoffset:0;stroke-opacity:1;color-rendering:auto;image-rendering:auto;shape-rendering:auto;text-rendering:auto;enable-background:accumulate;stop-color:#000000;stop-opacity:1"
             d="m 272.21484,136.8125 c -4.05511,0 -7.3789,3.32379 -7.3789,7.37891 0,4.05511 3.32379,7.3789 7.3789,7.3789 h 109.17969 c 4.05511,0 7.37891,-3.32379 7.37891,-7.3789 0,-4.05512 -3.32379,-7.37891 -7.37891,-7.37891 z m 0,3.80078 h 109.17969 c 2.01564,0 3.57813,1.56248 3.57813,3.57813 0,2.01564 -1.56248,3.58007 -3.57813,3.58007 H 272.21484 c -2.01564,0 -3.58007,-1.56443 -3.58007,-3.58007 0,-2.01565 1.56443,-3.57813 3.58007,-3.57813 z"
             id="path1002" />
        </g>
        <path
           style="color:#000000;font-style:normal;font-variant:normal;font-weight:normal;font-stretch:normal;font-size:medium;line-height:normal;font-family:sans-serif;font-variant-ligatures:normal;font-variant-position:normal;font-variant-caps:normal;font-variant-numeric:normal;font-variant-alternates:normal;font-variant-east-asian:normal;font-feature-settings:normal;font-variation-settings:normal;text-indent:0;text-align:start;text-decoration:none;text-decoration-line:none;text-decoration-style:solid;text-decoration-color:#000000;letter-spacing:normal;word-spacing:normal;text-transform:none;writing-mode:lr-tb;direction:ltr;text-orientation:mixed;dominant-baseline:auto;baseline-shift:baseline;text-anchor:start;white-space:normal;shape-padding:0;shape-margin:0;inline-size:0;clip-rule:nonzero;display:inline;overflow:visible;visibility:visible;isolation:auto;mix-blend-mode:normal;color-interpolation:sRGB;color-interpolation-filters:linearRGB;solid-color:#000000;solid-opacity:1;vector-effect:none;fill:#ffffff;fill-opacity:1;fill-rule:nonzero;stroke:none;stroke-width:2.651;stroke-linecap:round;stroke-linejoin:round;stroke-miterlimit:4;stroke-dasharray:none;stroke-dashoffset:0;stroke-opacity:1;color-rendering:auto;image-rendering:auto;shape-rendering:auto;text-rendering:auto;enable-background:accumulate;stop-color:#000000"
           d="m 307.1314,135.78006 h 19.78225 c 1.62755,0 2.93781,1.342 2.93781,3.00897 v 20.13334 c 0,1.66697 -1.31026,2.57284 -2.93781,2.57284 H 307.1314 c -1.62755,0 -2.93781,-0.90587 -2.93781,-2.57284 v -20.13334 c 0,-1.66697 1.31026,-3.00897 2.93781,-3.00897 z"
           id="path979" />
        <path
           id="path981"
           style="color:#000000;font-style:normal;font-variant:normal;font-weight:normal;font-stretch:normal;font-size:medium;line-height:normal;font-family:sans-serif;font-variant-ligatures:normal;font-variant-position:normal;font-variant-caps:normal;font-variant-numeric:normal;font-variant-alternates:normal;font-variant-east-asian:normal;font-feature-settings:normal;font-variation-settings:normal;text-indent:0;text-align:start;text-decoration:none;text-decoration-line:none;text-decoration-style:solid;text-decoration-color:#000000;letter-spacing:normal;word-spacing:normal;text-transform:none;writing-mode:lr-tb;direction:ltr;text-orientation:mixed;dominant-baseline:auto;baseline-shift:baseline;text-anchor:start;white-space:normal;shape-padding:0;shape-margin:0;inline-size:0;clip-rule:nonzero;display:inline;overflow:visible;visibility:visible;isolation:auto;mix-blend-mode:normal;color-interpolation:sRGB;color-interpolation-filters:linearRGB;solid-color:#000000;solid-opacity:1;vector-effect:none;fill:#110000;fill-opacity:1;fill-rule:nonzero;stroke:none;stroke-width:10.0195;stroke-linecap:round;stroke-linejoin:round;stroke-miterlimit:4;stroke-dasharray:none;stroke-dashoffset:0;stroke-opacity:1;color-rendering:auto;image-rendering:auto;shape-rendering:auto;text-rendering:auto;enable-background:accumulate;stop-color:#000000"
           d="m 1160.8086,508.17578 c -8.9053,0 -16.1133,7.45536 -16.1133,16.38086 v 76.09375 c 0,4.46275 1.9867,8.56365 5.0859,11.10156 3.0993,2.53788 7.0223,3.63282 11.0274,3.63282 h 74.7715 c 4.0051,0 7.9301,-1.09494 11.0293,-3.63282 3.0992,-2.53791 5.0859,-6.63881 5.0859,-11.10156 v -76.09375 c 0,-8.9255 -7.21,-16.38086 -16.1152,-16.38086 z m 0,10.01758 h 74.7715 c 3.3975,0 6.0898,2.68811 6.0898,6.36328 v 47.82031 h -86.9511 v -47.82031 c 0,-3.67517 2.6923,-6.36328 6.0898,-6.36328 z m -6.0898,67.28711 h 86.9511 v 15.16992 c 0,1.83757 -0.4935,2.60058 -1.4082,3.34961 -0.9147,0.74906 -2.5354,1.36719 -4.6816,1.36719 h -74.7715 c -2.1462,0 -3.765,-0.61813 -4.6797,-1.36719 -0.9147,-0.74903 -1.4101,-1.51204 -1.4101,-3.34961 z"
           transform="scale(0.26458333)" />
        <g
           id="g942"
           style="fill:#000000">
          <rect
             style="opacity:1;fill:#000000;fill-opacity:1;stroke:#00c39d;stroke-width:0;stroke-linecap:round;stroke-linejoin:round;stroke-miterlimit:4;stroke-dasharray:none;stroke-opacity:1"
             id="rect927"
             width="4.1577382"
             height="8.9769344"
             x="357.78305"
             y="-66.424431"
             rx="2.0676527"
             ry="2.1055541"
             transform="rotate(26.779784)" />
          <rect
             style="opacity:1;fill:#000000;fill-opacity:1;stroke:#00c39d;stroke-width:0;stroke-linecap:round;stroke-linejoin:round;stroke-miterlimit:4;stroke-dasharray:none;stroke-opacity:1"
             id="rect929"
             width="4.1577382"
             height="8.9769344"
             x="357.35065"
             y="-54.231014"
             rx="2.0676527"
             ry="2.1055541"
             transform="rotate(26.779784)" />
          <rect
             style="opacity:1;fill:#000000;fill-opacity:1;stroke:#00c39d;stroke-width:0;stroke-linecap:round;stroke-linejoin:round;stroke-miterlimit:4;stroke-dasharray:none;stroke-opacity:1"
             id="rect931"
             width="4.1577382"
             height="8.9769344"
             x="356.83127"
             y="-41.320107"
             rx="2.0676527"
             ry="2.1055541"
             transform="rotate(26.779784)" />
        </g>
        <rect
           style="opacity:1;fill:#000000;fill-opacity:1;stroke:#00c39d;stroke-width:0;stroke-linecap:round;stroke-linejoin:round;stroke-miterlimit:4;stroke-dasharray:none;stroke-opacity:1"
           id="rect944"
           width="4.1577382"
           height="8.9769344"
           x="324.93686"
           y="-155.43359"
           rx="2.0676527"
           ry="2.1055541"
           transform="rotate(41.495262)" />
        <rect
           style="opacity:1;fill:#000000;fill-opacity:1;stroke:#00c39d;stroke-width:0;stroke-linecap:round;stroke-linejoin:round;stroke-miterlimit:4;stroke-dasharray:none;stroke-opacity:1"
           id="rect946"
           width="4.1577382"
           height="8.9769344"
           x="324.50446"
           y="-143.24017"
           rx="2.0676527"
           ry="2.1055541"
           transform="rotate(41.495262)" />
        <rect
           style="opacity:1;fill:#000000;fill-opacity:1;stroke:#00c39d;stroke-width:0;stroke-linecap:round;stroke-linejoin:round;stroke-miterlimit:4;stroke-dasharray:none;stroke-opacity:1"
           id="rect948"
           width="4.1577382"
           height="8.9769344"
           x="323.98508"
           y="-130.32927"
           rx="2.0676527"
           ry="2.1055541"
           transform="rotate(41.495262)" />
        <rect
           style="opacity:1;fill:#000000;fill-opacity:1;stroke:#00c39d;stroke-width:0;stroke-linecap:round;stroke-linejoin:round;stroke-miterlimit:4;stroke-dasharray:none;stroke-opacity:1"
           id="rect968"
           width="4.1385717"
           height="5.4255939"
           x="323.84619"
           y="-116.46846"
           rx="1.988439"
           ry="2.1055541"
           transform="rotate(41.495262)" />
        <rect
           style="opacity:1;fill:#000000;fill-opacity:1;stroke:#00c39d;stroke-width:0;stroke-linecap:round;stroke-linejoin:round;stroke-miterlimit:4;stroke-dasharray:none;stroke-opacity:1"
           id="rect954"
           width="4.1577382"
           height="8.9769344"
           x="287.44144"
           y="-211.05042"
           rx="2.0676527"
           ry="2.1055541"
           transform="rotate(51.807703)" />
        <rect
           style="opacity:1;fill:#000000;fill-opacity:1;stroke:#00c39d;stroke-width:0;stroke-linecap:round;stroke-linejoin:round;stroke-miterlimit:4;stroke-dasharray:none;stroke-opacity:1"
           id="rect956"
           width="4.1577382"
           height="8.9769344"
           x="287.00903"
           y="-198.85701"
           rx="2.0676527"
           ry="2.1055541"
           transform="rotate(51.807703)" />
        <rect
           style="opacity:1;fill:#000000;fill-opacity:1;stroke:#00c39d;stroke-width:0;stroke-linecap:round;stroke-linejoin:round;stroke-miterlimit:4;stroke-dasharray:none;stroke-opacity:1"
           id="rect958"
           width="4.1577382"
           height="8.9769344"
           x="286.48965"
           y="-185.94609"
           rx="2.0676527"
           ry="2.1055541"
           transform="rotate(51.807703)" />
        <rect
           style="opacity:1;fill:#000000;fill-opacity:1;stroke:#00c39d;stroke-width:0;stroke-linecap:round;stroke-linejoin:round;stroke-miterlimit:4;stroke-dasharray:none;stroke-opacity:1"
           id="rect964"
           width="4.1577382"
           height="8.9769344"
           x="286.39407"
           y="-170.80345"
           rx="2.0676527"
           ry="2.1055541"
           transform="rotate(51.807703)" />
        <rect
           style="opacity:1;fill:#000000;fill-opacity:1;stroke:#00c39d;stroke-width:0;stroke-linecap:round;stroke-linejoin:round;stroke-miterlimit:4;stroke-dasharray:none;stroke-opacity:1"
           id="rect966"
           width="4.0549011"
           height="5.3253593"
           x="286.29224"
           y="-157.7061"
           rx="1.9525338"
           ry="2.1055541"
           transform="rotate(51.807703)" />
      </g>
    </g>
  </g>
</svg>
