<?xml version="1.0" encoding="UTF-8" standalone="no"?>
<svg
   xmlns:dc="http://purl.org/dc/elements/1.1/"
   xmlns:cc="http://creativecommons.org/ns#"
   xmlns:rdf="http://www.w3.org/1999/02/22-rdf-syntax-ns#"
   xmlns:svg="http://www.w3.org/2000/svg"
   xmlns="http://www.w3.org/2000/svg"
   xmlns:sodipodi="http://sodipodi.sourceforge.net/DTD/sodipodi-0.dtd"
   xmlns:inkscape="http://www.inkscape.org/namespaces/inkscape"
   width="793.70081"
   height="1122.5197"
   viewBox="0 0 210 297"
   version="1.1"
   id="svg1585"
   inkscape:version="1.0.1 (3bc2e813f5, 2020-09-07)"
   sodipodi:docname="broken-image.svg">
  <defs
     id="defs1579" />
  <sodipodi:namedview
     id="base"
     pagecolor="#ffffff"
     bordercolor="#666666"
     borderopacity="1.0"
     inkscape:pageopacity="0.0"
     inkscape:pageshadow="2"
     inkscape:zoom="0.7"
     inkscape:cx="-12.734344"
     inkscape:cy="198.09363"
     inkscape:document-units="mm"
     inkscape:current-layer="g2233"
     inkscape:document-rotation="0"
     showgrid="false"
     inkscape:snap-global="false"
     showguides="true"
     inkscape:guide-bbox="true"
     inkscape:window-width="1920"
     inkscape:window-height="1001"
     inkscape:window-x="-9"
     inkscape:window-y="-9"
     inkscape:window-maximized="1"
     units="px">
    <sodipodi:guide
       position="266.94568,138.72247"
       orientation="1,0"
       id="guide2218" />
  </sodipodi:namedview>
  <metadata
     id="metadata1582">
    <rdf:RDF>
      <cc:Work
         rdf:about="">
        <dc:format>image/svg+xml</dc:format>
        <dc:type
           rdf:resource="http://purl.org/dc/dcmitype/StillImage" />
        <dc:title></dc:title>
      </cc:Work>
    </rdf:RDF>
  </metadata>
  <g
     inkscape:label="Layer 1"
     inkscape:groupmode="layer"
     id="layer1">
    <g
       id="g2233"
       transform="translate(-457.35119,-98.27381)"
       inkscape:export-xdpi="95.999992"
       inkscape:export-ydpi="95.999992">
      <rect
         style="fill:#c4c4c4;fill-opacity:1;stroke:none;stroke-width:0.13;stroke-linecap:round;stroke-linejoin:round"
         id="rect2176"
         width="138.90625"
         height="92.604164"
         x="488.97385"
         y="125.0211"
         ry="0.33408672" />
      <g
         id="g2203"
         transform="matrix(0.99992959,0,0,1.1792432,215.84851,56.2419)"
         style="stroke:none">
        <rect
           style="fill:#5b5b5d;fill-opacity:1;stroke:none;stroke-width:0.0764178;stroke-linecap:round;stroke-linejoin:round"
           id="rect2178"
           width="93.224716"
           height="47.678581"
           x="295.80124"
           y="73.589554"
           ry="0.17200933" />
        <rect
           style="fill:#c4c4c4;fill-opacity:1;stroke:none;stroke-width:0.0646454;stroke-linecap:round;stroke-linejoin:round"
           id="rect2180"
           width="82.364784"
           height="38.618877"
           x="301.23123"
           y="78.1194"
           ry="0.13932475" />
      </g>
      <g
         id="g2223"
         transform="translate(229.80952,-16.252977)">
        <rect
           style="fill:#5b5b5d;fill-opacity:1;stroke:none;stroke-width:0.134458;stroke-linecap:round;stroke-linejoin:round"
           id="rect2205"
           width="4.3431296"
           height="12.294397"
           x="315.51169"
           y="168.91434"
           ry="0.85775334" />
        <path
           id="path2207"
           style="fill:#5b5b5d;fill-opacity:1;stroke:none;stroke-width:0.999999px;stroke-linecap:butt;stroke-linejoin:miter;stroke-opacity:1"
           d="m 1188.6973,718.4707 v 61.36719 c 0,0 -0.5596,5.50186 4.041,5.54102 l 31.3144,0.26757 c 0,0 2.7774,0.21984 2.7774,-2.94336 v -30.64453 h 13.6992 1.4531 13.6992 v 30.64453 c 0,3.1632 2.7774,2.94336 2.7774,2.94336 l 31.3144,-0.26757 c 4.6006,-0.0392 4.0411,-5.54102 4.0411,-5.54102 V 718.4707 l -51.9559,-48.94754 c 0.026,-0.70029 -53.1613,48.94754 -53.1613,48.94754 z"
           transform="scale(0.26458333)"
           sodipodi:nodetypes="ccccsccccscccccc" />
        <path
           id="path2209"
           style="fill:#5b5b5d;fill-opacity:1;stroke:none;stroke-width:0.999999px;stroke-linecap:butt;stroke-linejoin:miter;stroke-opacity:1"
           d="m 1241.168,636.06055 c -0.014,6.7e-4 -0.029,0.003 -0.043,0.004 -0.113,4.6e-4 -0.2271,-0.002 -0.3379,0.008 0,3.4e-4 -0.01,0.0267 -0.01,0.0293 -2.7264,0.35446 -5.7421,2.94141 -5.7421,2.94141 l -67.2579,61.82422 c -9.1697,8.42929 4.7825,20.44824 11.8047,14.06836 l 61.6739,-56.03125 61.6738,56.03125 c 7.0222,6.37988 20.9745,-5.63907 11.8047,-14.06836 l -67.2578,-61.82422 c 0,0 -3.0158,-2.58695 -5.7422,-2.94141 0,-0.003 -0.01,-0.0289 -0.01,-0.0293 -0.1108,-0.0102 -0.2249,-0.007 -0.3379,-0.008 -0.044,-0.003 -0.087,-7.5e-4 -0.1308,-0.002 -0.03,8.1e-4 -0.058,-0.003 -0.088,-0.002 z"
           transform="scale(0.26458333)" />
      </g>
    </g>
  </g>
</svg>
